<svg width="64" height="64" xmlns="http://www.w3.org/2000/svg">
 <title/>

 <g>
  <title>background</title>
  <rect fill="none" id="canvas_background" height="402" width="582" y="-1" x="-1"/>
 </g>
 <g>
  <title>Layer 1</title>
  <path fill="#ffffff" id="svg_1" d="m55.52,14.57a1,1 0 0 0 -1,-0.42l-46.47,6.45a1,1 0 0 0 -0.78,0.58a1,1 0 0 0 0.09,1l10.58,15.38l-0.11,11.89a1,1 0 0 0 0.53,0.89a1,1 0 0 0 0.47,0.12a1,1 0 0 0 0.56,-0.18l4.95,-3.39l6.79,9.89a1,1 0 0 0 0.82,0.44l0.05,0a1,1 0 0 0 0.83,-0.52l22.75,-41.08a1,1 0 0 0 -0.06,-1.05z"/>
 </g>
</svg>